<svg width="26" height="26" viewBox="0 0 26 26" fill="none" xmlns="http://www.w3.org/2000/svg">
<path d="M8.26074 0.75C9.89305 0.750008 11.5106 1.38673 13.0654 2.61426C15.9006 4.85239 16.2828 7.42455 16.6123 9.62207C16.8408 11.1481 17.0513 12.5104 17.9785 13.6592L18.0742 13.7842C18.5015 14.3725 18.6585 15.0451 18.543 15.7402L20.7686 17.4932C21.4134 17.3327 22.2516 17.2494 23.0361 17.4385C23.8843 17.6429 24.6721 18.1674 25.0576 19.2334C25.4293 20.2584 25.1969 20.977 24.9111 21.4062C24.5442 21.9554 23.9706 22.2388 23.4922 22.3867C23.5294 23.1778 23.2198 23.936 22.6035 24.4951C22.0547 24.9929 21.3529 25.25 20.6436 25.25C20.1482 25.2498 19.6609 25.124 19.2266 24.8848C18.3805 24.4188 17.9715 23.685 17.791 22.9717C17.6328 22.3464 17.6493 21.7291 17.6943 21.2969L15.1787 19.708C14.8004 19.8438 14.3965 19.9141 13.9668 19.9141C13.4214 19.9141 12.8431 19.8104 12.1572 19.5977C11.391 19.3596 9.75432 18.6173 8.30176 17.9316C6.84091 17.2421 5.54043 16.5973 5.43359 16.5439L5.42188 16.5381L5.37109 16.5088L5.36133 16.5029C2.69773 14.8221 1.14757 12.7456 0.816406 10.3203C0.545747 8.33838 1.14896 6.52843 1.82324 5.20801C2.49816 3.8864 3.2549 3.03421 3.32324 2.95801C3.43551 2.82952 5.30343 0.75 8.26074 0.75ZM17.832 17.291C17.6247 17.5673 17.3924 17.8235 17.1357 18.0547C16.9947 18.2773 16.8351 18.4871 16.6592 18.6826L19.0342 20.1816C19.1824 20.2747 19.2972 20.4128 19.3623 20.5752C19.4111 20.6971 19.4304 20.8284 19.4189 20.958L19.3975 21.0869C19.3975 21.087 19.2895 21.5465 19.3232 22.0781C19.3577 22.6198 19.532 23.1592 20.0215 23.4287L20.126 23.4805C20.6478 23.7124 21.1824 23.5479 21.4971 23.2627C21.5813 23.1863 21.7113 23.0425 21.7861 22.8418C21.8582 22.6483 21.8857 22.3863 21.7451 22.0498C21.6936 21.9264 21.6724 21.7925 21.6836 21.6592C21.6948 21.5259 21.7381 21.3972 21.8096 21.2842C21.8811 21.1711 21.9789 21.0767 22.0947 21.0098C22.21 20.9431 22.3396 20.905 22.4727 20.8994L22.7031 20.8711C22.8015 20.8537 22.9163 20.8282 23.0312 20.791C23.2707 20.7136 23.4559 20.6049 23.5391 20.4795C23.6094 20.3726 23.6383 20.1665 23.5049 19.8008L23.5039 19.7998C23.2742 19.166 22.7017 18.9832 22.084 18.9854C21.4718 18.9876 20.9077 19.1776 20.8662 19.1924L20.8623 19.1934C20.7318 19.2378 20.592 19.2495 20.4561 19.2266C20.3201 19.2036 20.1918 19.1472 20.083 19.0625L20.082 19.0615L17.832 17.291ZM8.26172 2.41113C7.15562 2.41113 6.2323 2.81863 5.5791 3.23438C4.93491 3.64442 4.56445 4.0548 4.55664 4.06348L4.55469 4.06641C4.55469 4.06641 4.51404 4.11225 4.44336 4.19922C4.37313 4.28565 4.2741 4.41229 4.15723 4.57324C3.9233 4.89539 3.61865 5.35529 3.3291 5.91406C2.74764 7.03621 2.23856 8.53276 2.45508 10.1025C2.71173 11.9669 3.95116 13.6434 6.20898 15.0771C6.45227 15.1972 7.70821 15.8169 9.07715 16.4629C10.4872 17.1283 11.9916 17.8085 12.6465 18.0117C13.1905 18.18 13.607 18.2539 13.9678 18.2539C14.2158 18.2539 14.5078 18.2233 14.8154 18.0684C15.1222 17.9139 15.4654 17.6259 15.7959 17.0781V17.0762L15.8496 16.9893L15.873 16.9512L15.9082 16.9238L15.9873 16.8604C16.0977 16.7614 16.4788 16.4283 16.7344 15.9609L16.7988 15.834C16.9311 15.5492 16.9471 15.3334 16.9209 15.1709C16.8904 14.9815 16.7981 14.8319 16.6953 14.7051H16.6943C15.4712 13.19 15.2169 11.4651 14.9775 9.87012C14.6626 7.77364 14.3741 5.86842 12.2549 4.0918L12.0439 3.91992C10.7621 2.90773 9.49042 2.41126 8.26172 2.41113Z" fill="#FFB577" stroke="#FFB577" stroke-width="0.5"/>
</svg>
