<svg width="15" height="15" viewBox="0 0 15 15" fill="none" xmlns="http://www.w3.org/2000/svg">
<g clip-path="url(#clip0_0_637)">
<path d="M7.22222 1.30056C9.15191 1.30056 9.38043 1.30903 10.1393 1.34288C10.8446 1.37391 11.2255 1.4924 11.4794 1.59115C11.8151 1.72092 12.0577 1.87891 12.3088 2.12999C12.5627 2.3839 12.7179 2.6237 12.8477 2.95942C12.9464 3.21333 13.0649 3.59701 13.0959 4.29948C13.1298 5.0612 13.1382 5.28971 13.1382 7.21658C13.1382 9.14627 13.1298 9.37478 13.0959 10.1337C13.0649 10.839 12.9464 11.2198 12.8477 11.4737C12.7179 11.8095 12.5599 12.0521 12.3088 12.3032C12.0549 12.5571 11.8151 12.7122 11.4794 12.842C11.2255 12.9408 10.8418 13.0592 10.1393 13.0903C9.37761 13.1241 9.14909 13.1326 7.22222 13.1326C5.29254 13.1326 5.06402 13.1241 4.30512 13.0903C3.59983 13.0592 3.21897 12.9408 2.96506 12.842C2.62934 12.7122 2.38672 12.5543 2.13563 12.3032C1.88173 12.0493 1.72656 11.8095 1.59679 11.4737C1.49805 11.2198 1.37956 10.8362 1.34852 10.1337C1.31467 9.37196 1.30621 9.14345 1.30621 7.21658C1.30621 5.28689 1.31467 5.05838 1.34852 4.29948C1.37956 3.59418 1.49805 3.21333 1.59679 2.95942C1.72656 2.6237 1.88455 2.38108 2.13563 2.12999C2.38954 1.87609 2.62934 1.72092 2.96506 1.59115C3.21897 1.4924 3.60265 1.37391 4.30512 1.34288C5.06402 1.30903 5.29254 1.30056 7.22222 1.30056ZM7.22222 0C5.2615 0 5.01606 0.00846354 4.24588 0.0423177C3.47852 0.0761719 2.95096 0.200304 2.49392 0.378038C2.01714 0.564236 1.61372 0.809679 1.21311 1.21311C0.809679 1.61372 0.564236 2.01714 0.378038 2.4911C0.200304 2.95096 0.0761719 3.47569 0.0423177 4.24306C0.00846354 5.01606 0 5.2615 0 7.22222C0 9.18294 0.00846354 9.42839 0.0423177 10.1986C0.0761719 10.9659 0.200304 11.4935 0.378038 11.9505C0.564236 12.4273 0.809679 12.8307 1.21311 13.2313C1.61372 13.6319 2.01714 13.8802 2.4911 14.0636C2.95096 14.2413 3.47569 14.3655 4.24306 14.3993C5.01324 14.4332 5.25868 14.4416 7.2194 14.4416C9.18012 14.4416 9.42557 14.4332 10.1957 14.3993C10.9631 14.3655 11.4907 14.2413 11.9477 14.0636C12.4217 13.8802 12.8251 13.6319 13.2257 13.2313C13.6263 12.8307 13.8746 12.4273 14.0579 11.9533C14.2357 11.4935 14.3598 10.9688 14.3937 10.2014C14.4275 9.43121 14.436 9.18576 14.436 7.22504C14.436 5.26432 14.4275 5.01888 14.3937 4.2487C14.3598 3.48134 14.2357 2.95378 14.0579 2.49674C13.8802 2.01714 13.6348 1.61372 13.2313 1.21311C12.8307 0.8125 12.4273 0.564236 11.9533 0.380859C11.4935 0.203125 10.9688 0.0789931 10.2014 0.0451389C9.42839 0.00846354 9.18294 0 7.22222 0Z" fill="white"/>
<path d="M7.22206 3.51245C5.17388 3.51245 3.51221 5.17413 3.51221 7.2223C3.51221 9.27048 5.17388 10.9322 7.22206 10.9322C9.27024 10.9322 10.9319 9.27048 10.9319 7.2223C10.9319 5.17413 9.27024 3.51245 7.22206 3.51245ZM7.22206 9.62877C5.89328 9.62877 4.81559 8.55108 4.81559 7.2223C4.81559 5.89353 5.89328 4.81584 7.22206 4.81584C8.55083 4.81584 9.62853 5.89353 9.62853 7.2223C9.62853 8.55108 8.55083 9.62877 7.22206 9.62877Z" fill="white"/>
<path d="M11.9451 3.36562C11.9451 3.84522 11.5558 4.23172 11.079 4.23172C10.5994 4.23172 10.2129 3.84239 10.2129 3.36562C10.2129 2.88601 10.6022 2.49951 11.079 2.49951C11.5558 2.49951 11.9451 2.88884 11.9451 3.36562Z" fill="white"/>
</g>
<defs>
<clipPath id="clip0_0_637">
<rect width="14.4444" height="14.4444" fill="white"/>
</clipPath>
</defs>
</svg>
